<?xml version="1.0" encoding="UTF-8"?>
<svg width="400" height="400" version="1.1" xmlns="http://www.w3.org/2000/svg">
 <path d="m10 390h380v-380h-380z" fill="#ef0000"/>
 <path d="m334.16 190.92c-8.8993-8.9643-19.877-12.732-36.378-12.732h-35.273c-6.431 0-10.004-3.3778-9.9387-9.8738v-19.098c0-6.496 3.4428-9.8738 9.9387-9.8738h79.835v-43.197h-84.316c-31.245-0.3248-49.239 17.474-48.849 48.783v28.062c0 15.915 3.5077 25.918 12.147 34.557 8.5095 8.5747 18.903 12.212 34.754 12.212h37.091c6.431 0 9.9387 3.3778 9.9387 9.8738v20.722c0 3.3129-0.7795 5.6514-2.5335 7.4055-1.754 1.7541-3.9624 2.5335-7.4055 2.5335h-112.12l-22.801-37.481c25.725-0.3248 41.055-15.33 40.534-41.639v-36.118c0-16.629-3.6378-27.087-12.602-36.052-8.8993-8.9643-19.748-12.862-36.182-12.862h-95.555v207.28h43.782v-164.09h47.421c3.3129 0 5.6514 0.7795 7.4054 2.5335 1.7541 1.754 2.5335 3.9624 2.5335 7.4055v26.438c0 6.4959-3.4428 9.8738-9.9387 9.8738-13.641 0.32479-26.957-2.5335-34.947 10.264-5.9763 9.2892-3.8326 22.606 1.9488 31.764 6.171 10.978 39.561 70.286 39.561 70.286 1.9488 3.5077 5.7163 5.5215 10.199 5.5215h135.64c31.311 0.38975 49.109-17.604 48.783-48.849v-27.543c0-16.629-3.6378-27.087-12.602-36.052" fill="#fff"/>
</svg>
